<svg width="40" height="40" viewBox="0 0 40 40" fill="none" xmlns="http://www.w3.org/2000/svg">
<g clip-path="url(#clip0_403_57888)">
<path d="M38.0063 1.5625L22.3984 13.1547L25.2847 6.31544L38.0063 1.5625Z" fill="#E2761B" stroke="#E2761B" stroke-width="0.3125" stroke-linecap="round" stroke-linejoin="round"/>
<path d="M1.97656 1.5625L17.4589 13.2645L14.7138 6.31544L1.97656 1.5625Z" fill="#E4761B" stroke="#E4761B" stroke-width="0.3125" stroke-linecap="round" stroke-linejoin="round"/>
<path d="M32.3912 28.4331L28.2344 34.8017L37.1285 37.2488L39.6854 28.5743L32.3912 28.4331Z" fill="#E4761B" stroke="#E4761B" stroke-width="0.3125" stroke-linecap="round" stroke-linejoin="round"/>
<path d="M0.328125 28.5743L2.8693 37.2488L11.7634 34.8017L7.60656 28.4331L0.328125 28.5743Z" fill="#E4761B" stroke="#E4761B" stroke-width="0.3125" stroke-linecap="round" stroke-linejoin="round"/>
<path d="M11.2597 17.6723L8.78125 21.4213L17.6126 21.8134L17.2989 12.3232L11.2597 17.6723Z" fill="#E4761B" stroke="#E4761B" stroke-width="0.3125" stroke-linecap="round" stroke-linejoin="round"/>
<path d="M28.72 17.6722L22.6024 12.2134L22.3984 21.8134L31.2141 21.4212L28.72 17.6722Z" fill="#E4761B" stroke="#E4761B" stroke-width="0.3125" stroke-linecap="round" stroke-linejoin="round"/>
<path d="M11.7617 34.8019L17.0637 32.2137L12.4833 28.6372L11.7617 34.8019Z" fill="#E4761B" stroke="#E4761B" stroke-width="0.3125" stroke-linecap="round" stroke-linejoin="round"/>
<path d="M22.918 32.2137L28.2356 34.8019L27.4984 28.6372L22.918 32.2137Z" fill="#E4761B" stroke="#E4761B" stroke-width="0.3125" stroke-linecap="round" stroke-linejoin="round"/>
<path d="M28.2356 34.8016L22.918 32.2134L23.3415 35.68L23.2944 37.1389L28.2356 34.8016Z" fill="#D7C1B3" stroke="#D7C1B3" stroke-width="0.3125" stroke-linecap="round" stroke-linejoin="round"/>
<path d="M11.7656 34.8016L16.7068 37.1389L16.6754 35.68L17.0676 32.2134L11.7656 34.8016Z" fill="#D7C1B3" stroke="#D7C1B3" stroke-width="0.3125" stroke-linecap="round" stroke-linejoin="round"/>
<path d="M16.7829 26.3466L12.3594 25.0446L15.4809 23.6172L16.7829 26.3466Z" fill="#233447" stroke="#233447" stroke-width="0.3125" stroke-linecap="round" stroke-linejoin="round"/>
<path d="M23.1992 26.3466L24.5012 23.6172L27.6384 25.0446L23.1992 26.3466Z" fill="#233447" stroke="#233447" stroke-width="0.3125" stroke-linecap="round" stroke-linejoin="round"/>
<path d="M11.7662 34.8017L12.5192 28.4331L7.60938 28.5743L11.7662 34.8017Z" fill="#CD6116" stroke="#CD6116" stroke-width="0.3125" stroke-linecap="round" stroke-linejoin="round"/>
<path d="M27.4844 28.4331L28.2373 34.8017L32.3942 28.5743L27.4844 28.4331Z" fill="#CD6116" stroke="#CD6116" stroke-width="0.3125" stroke-linecap="round" stroke-linejoin="round"/>
<path d="M31.218 21.4214L22.4023 21.8135L23.218 26.3469L24.52 23.6175L27.6572 25.0449L31.218 21.4214Z" fill="#CD6116" stroke="#CD6116" stroke-width="0.3125" stroke-linecap="round" stroke-linejoin="round"/>
<path d="M12.3616 25.0449L15.4989 23.6175L16.7852 26.3469L17.6165 21.8135L8.78516 21.4214L12.3616 25.0449Z" fill="#CD6116" stroke="#CD6116" stroke-width="0.3125" stroke-linecap="round" stroke-linejoin="round"/>
<path d="M8.78516 21.4214L12.4871 28.6371L12.3616 25.0449L8.78516 21.4214Z" fill="#E4751F" stroke="#E4751F" stroke-width="0.3125" stroke-linecap="round" stroke-linejoin="round"/>
<path d="M27.6569 25.0449L27.5 28.6371L31.2176 21.4214L27.6569 25.0449Z" fill="#E4751F" stroke="#E4751F" stroke-width="0.3125" stroke-linecap="round" stroke-linejoin="round"/>
<path d="M17.6165 21.8135L16.7852 26.3468L17.8204 31.6958L18.0557 24.6527L17.6165 21.8135Z" fill="#E4751F" stroke="#E4751F" stroke-width="0.3125" stroke-linecap="round" stroke-linejoin="round"/>
<path d="M22.4001 21.8135L21.9766 24.637L22.1648 31.6958L23.2158 26.3468L22.4001 21.8135Z" fill="#E4751F" stroke="#E4751F" stroke-width="0.3125" stroke-linecap="round" stroke-linejoin="round"/>
<path d="M23.215 26.3469L22.1641 31.6959L22.917 32.2135L27.4974 28.6371L27.6543 25.0449L23.215 26.3469Z" fill="#F6851B" stroke="#F6851B" stroke-width="0.3125" stroke-linecap="round" stroke-linejoin="round"/>
<path d="M12.3594 25.0449L12.4849 28.6371L17.0653 32.2135L17.8182 31.6959L16.7829 26.3469L12.3594 25.0449Z" fill="#F6851B" stroke="#F6851B" stroke-width="0.3125" stroke-linecap="round" stroke-linejoin="round"/>
<path d="M23.295 37.139L23.3421 35.6802L22.9499 35.3351H17.0362L16.6754 35.6802L16.7068 37.139L11.7656 34.8018L13.4911 36.2135L16.9892 38.6449H22.997L26.5107 36.2135L28.2362 34.8018L23.295 37.139Z" fill="#C0AD9E" stroke="#C0AD9E" stroke-width="0.3125" stroke-linecap="round" stroke-linejoin="round"/>
<path d="M22.9189 32.2134L22.166 31.6958H17.8209L17.0679 32.2134L16.6758 35.6801L17.0366 35.335H22.9503L23.3424 35.6801L22.9189 32.2134Z" fill="#161616" stroke="#161616" stroke-width="0.3125" stroke-linecap="round" stroke-linejoin="round"/>
<path d="M38.667 13.9076L40.0003 7.5076L38.0082 1.5625L22.918 12.7625L28.7219 17.6723L36.9258 20.0723L38.7454 17.9547L37.9611 17.39L39.216 16.2449L38.2435 15.4919L39.4984 14.5351L38.667 13.9076Z" fill="#763D16" stroke="#763D16" stroke-width="0.3125" stroke-linecap="round" stroke-linejoin="round"/>
<path d="M0 7.5076L1.33333 13.9076L0.486275 14.5351L1.74118 15.4919L0.784314 16.2449L2.03922 17.39L1.2549 17.9547L3.05882 20.0723L11.2627 17.6723L17.0667 12.7625L1.97647 1.5625L0 7.5076Z" fill="#763D16" stroke="#763D16" stroke-width="0.3125" stroke-linecap="round" stroke-linejoin="round"/>
<path d="M36.9235 20.0724L28.7196 17.6724L31.2137 21.4214L27.4961 28.6371L32.3902 28.5743H39.6843L36.9235 20.0724Z" fill="#F6851B" stroke="#F6851B" stroke-width="0.3125" stroke-linecap="round" stroke-linejoin="round"/>
<path d="M11.2615 17.6724L3.05754 20.0724L0.328125 28.5743H7.60656L12.485 28.6371L8.78303 21.4214L11.2615 17.6724Z" fill="#F6851B" stroke="#F6851B" stroke-width="0.3125" stroke-linecap="round" stroke-linejoin="round"/>
<path d="M22.4011 21.8135L22.9188 12.7625L25.3031 6.31543H14.7148L17.0678 12.7625L17.6168 21.8135L17.805 24.6684L17.8207 31.6958H22.1658L22.1972 24.6684L22.4011 21.8135Z" fill="#F6851B" stroke="#F6851B" stroke-width="0.3125" stroke-linecap="round" stroke-linejoin="round"/>
</g>
<defs>
<clipPath id="clip0_403_57888">
<rect width="40" height="40" fill="white"/>
</clipPath>
</defs>
</svg>
