<svg xmlns="http://www.w3.org/2000/svg" width="110" height="24" viewBox="0 0 110 24" fill="none">
  <path d="M27.936 19C27.1424 19 26.4512 18.8133 25.8624 18.44C25.2736 18.0667 24.8128 17.5267 24.48 16.82C24.16 16.1133 24 15.2667 24 14.28V8.26H26.3616V13.68C26.3616 14.36 26.4512 14.9333 26.6304 15.4C26.8224 15.8533 27.104 16.2 27.4752 16.44C27.8592 16.68 28.3264 16.8 28.8768 16.8C29.2736 16.8 29.6384 16.7333 29.9712 16.6C30.3168 16.4667 30.6176 16.28 30.8736 16.04C31.1296 15.7867 31.328 15.4933 31.4688 15.16C31.6224 14.8133 31.6992 14.4333 31.6992 14.02V8.26H34.0608V18.8H31.7568L31.7184 16.6L32.1408 16.36C31.9872 16.8267 31.712 17.26 31.3152 17.66C30.9184 18.06 30.432 18.3867 29.856 18.64C29.2928 18.88 28.6528 19 27.936 19Z" fill="#252525"/>
  <path d="M36.1098 18.8V4H38.4906V18.8H36.1098Z" fill="#252525"/>
  <path d="M41.8337 18.8V5.34H44.1953V18.8H41.8337ZM39.3761 10.54V8.26H47.0177V10.54H39.3761Z" fill="#252525"/>
  <path d="M48.1563 18.8V8.26H50.4795L50.5371 11.82L50.0571 11.34C50.2235 10.7267 50.5051 10.1733 50.9019 9.68C51.3115 9.17333 51.7787 8.77333 52.3035 8.48C52.8283 8.18667 53.3723 8.04 53.9355 8.04C54.2555 8.04 54.5691 8.07333 54.8763 8.14C55.1835 8.20667 55.4267 8.29333 55.6059 8.4L54.9723 11.06C54.7675 10.9267 54.5179 10.8267 54.2235 10.76C53.9419 10.68 53.6539 10.64 53.3595 10.64C52.9499 10.64 52.5723 10.72 52.2267 10.88C51.8811 11.0267 51.5803 11.2333 51.3243 11.5C51.0811 11.7533 50.8891 12.0467 50.7483 12.38C50.6075 12.7 50.5371 13.0467 50.5371 13.42V18.8H48.1563Z" fill="#252525"/>
  <path d="M59.8869 19C58.9013 19 58.0245 18.7667 57.2565 18.3C56.5013 17.82 55.8997 17.1667 55.4517 16.34C55.0165 15.5133 54.7989 14.5667 54.7989 13.5C54.7989 12.4467 55.0229 11.5067 55.4709 10.68C55.9189 9.85333 56.5333 9.20667 57.3141 8.74C58.1077 8.27333 59.0101 8.04 60.0213 8.04C60.6229 8.04 61.1733 8.12 61.6725 8.28C62.1845 8.44 62.6261 8.66667 62.9973 8.96C63.3813 9.24 63.6885 9.55333 63.9189 9.9C64.1493 10.2333 64.2901 10.5867 64.3413 10.96L63.7845 10.9V8.26H66.1461V18.8H63.7653V16.12L64.2837 16.14C64.2197 16.4733 64.0597 16.8133 63.8037 17.16C63.5605 17.4933 63.2341 17.8 62.8245 18.08C62.4277 18.3467 61.9797 18.5667 61.4805 18.74C60.9813 18.9133 60.4501 19 59.8869 19ZM60.5205 16.82C61.1733 16.82 61.7493 16.68 62.2485 16.4C62.7605 16.12 63.1573 15.7333 63.4389 15.24C63.7205 14.7333 63.8613 14.1533 63.8613 13.5C63.8613 12.8733 63.7205 12.3133 63.4389 11.82C63.1573 11.3267 62.7605 10.94 62.2485 10.66C61.7493 10.3667 61.1733 10.22 60.5205 10.22C59.8549 10.22 59.2725 10.3667 58.7733 10.66C58.2741 10.94 57.8837 11.3267 57.6021 11.82C57.3333 12.3133 57.1989 12.8733 57.1989 13.5C57.1989 14.1533 57.3333 14.7333 57.6021 15.24C57.8837 15.7333 58.2741 16.12 58.7733 16.4C59.2725 16.68 59.8549 16.82 60.5205 16.82Z" fill="#252525"/>
  <path d="M68.2268 18.8V8.26H70.55L70.6076 11.82L70.1276 11.34C70.294 10.7267 70.5756 10.1733 70.9724 9.68C71.382 9.17333 71.8492 8.77333 72.374 8.48C72.8988 8.18667 73.4428 8.04 74.006 8.04C74.326 8.04 74.6396 8.07333 74.9468 8.14C75.254 8.20667 75.4972 8.29333 75.6764 8.4L75.0428 11.06C74.838 10.9267 74.5884 10.8267 74.294 10.76C74.0124 10.68 73.7244 10.64 73.43 10.64C73.0204 10.64 72.6428 10.72 72.2972 10.88C71.9516 11.0267 71.6508 11.2333 71.3948 11.5C71.1516 11.7533 70.9596 12.0467 70.8188 12.38C70.678 12.7 70.6076 13.0467 70.6076 13.42V18.8H68.2268Z" fill="#252525"/>
  <path d="M79.9574 19C78.9718 19 78.095 18.7667 77.327 18.3C76.5718 17.82 75.9702 17.1667 75.5222 16.34C75.087 15.5133 74.8694 14.5667 74.8694 13.5C74.8694 12.4467 75.0934 11.5067 75.5414 10.68C75.9894 9.85333 76.6038 9.20667 77.3846 8.74C78.1782 8.27333 79.0806 8.04 80.0918 8.04C80.6934 8.04 81.2438 8.12 81.743 8.28C82.255 8.44 82.6966 8.66667 83.0678 8.96C83.4518 9.24 83.759 9.55333 83.9894 9.9C84.2198 10.2333 84.3606 10.5867 84.4118 10.96L83.855 10.9V8.26H86.2166V18.8H83.8358V16.12L84.3542 16.14C84.2902 16.4733 84.1302 16.8133 83.8742 17.16C83.631 17.4933 83.3046 17.8 82.895 18.08C82.4982 18.3467 82.0502 18.5667 81.551 18.74C81.0518 18.9133 80.5206 19 79.9574 19ZM80.591 16.82C81.2438 16.82 81.8198 16.68 82.319 16.4C82.831 16.12 83.2278 15.7333 83.5094 15.24C83.791 14.7333 83.9318 14.1533 83.9318 13.5C83.9318 12.8733 83.791 12.3133 83.5094 11.82C83.2278 11.3267 82.831 10.94 82.319 10.66C81.8198 10.3667 81.2438 10.22 80.591 10.22C79.9254 10.22 79.343 10.3667 78.8438 10.66C78.3446 10.94 77.9542 11.3267 77.6726 11.82C77.4038 12.3133 77.2694 12.8733 77.2694 13.5C77.2694 14.1533 77.4038 14.7333 77.6726 15.24C77.9542 15.7333 78.3446 16.12 78.8438 16.4C79.343 16.68 79.9254 16.82 80.591 16.82Z" fill="#252525"/>
  <path d="M88.2973 18.8V8.26H90.6205L90.6781 11.82L90.1981 11.34C90.3645 10.7267 90.6461 10.1733 91.0429 9.68C91.4525 9.17333 91.9197 8.77333 92.4445 8.48C92.9693 8.18667 93.5133 8.04 94.0765 8.04C94.3965 8.04 94.7101 8.07333 95.0173 8.14C95.3245 8.20667 95.5677 8.29333 95.7469 8.4L95.1133 11.06C94.9085 10.9267 94.6589 10.8267 94.3645 10.76C94.0829 10.68 93.7949 10.64 93.5005 10.64C93.0909 10.64 92.7133 10.72 92.3677 10.88C92.0221 11.0267 91.7213 11.2333 91.4653 11.5C91.2221 11.7533 91.0301 12.0467 90.8893 12.38C90.7485 12.7 90.6781 13.0467 90.6781 13.42V18.8H88.2973Z" fill="#252525"/>
  <path d="M100.969 19C99.7911 19 98.7479 18.7667 97.8391 18.3C96.9303 17.8333 96.2199 17.2 95.7079 16.4C95.2087 15.5867 94.9591 14.66 94.9591 13.62C94.9591 12.7667 95.1063 12 95.4007 11.32C95.6951 10.64 96.0983 10.0533 96.6103 9.56C97.1351 9.06667 97.7495 8.68667 98.4535 8.42C99.1575 8.15333 99.9191 8.02 100.738 8.02C101.481 8.02 102.172 8.15333 102.812 8.42C103.465 8.67333 104.028 9.03333 104.502 9.5C104.988 9.95333 105.359 10.5 105.615 11.14C105.884 11.7667 106.012 12.46 105.999 13.22L105.98 14.16H96.7063L96.2647 12.44H104.002L103.695 12.74V12.3C103.644 11.8867 103.478 11.5267 103.196 11.22C102.914 10.9 102.556 10.6467 102.121 10.46C101.698 10.2733 101.238 10.18 100.738 10.18C100.034 10.18 99.4199 10.3 98.8951 10.54C98.3703 10.7667 97.9607 11.12 97.6663 11.6C97.3847 12.08 97.2439 12.6933 97.2439 13.44C97.2439 14.12 97.4103 14.7133 97.7431 15.22C98.0887 15.7133 98.5623 16.1 99.1639 16.38C99.7783 16.66 100.489 16.8 101.295 16.8C101.986 16.8 102.582 16.7067 103.081 16.52C103.58 16.32 104.041 16.0533 104.463 15.72L105.577 17.42C105.206 17.7267 104.77 18 104.271 18.24C103.772 18.48 103.241 18.6667 102.678 18.8C102.114 18.9333 101.545 19 100.969 19Z" fill="#252525"/>
  <path fill-rule="evenodd" clip-rule="evenodd" d="M20.0003 5.42609H20V18.5738H13.2877V5.42595H13.288V0L20.0003 5.42609ZM6.71262 10.6435H0.000305191V5.42613L6.71262 10.6435ZM0 10.6437H6.71231V18.5741V18.5741V24.0002L0 18.5741V18.5741V10.6437ZM6.71262 18.5742H13.4249V24.0003H6.71262V18.5742Z" fill="#3C5AFD"/>
</svg>