<svg width="16" height="16" viewBox="0 0 16 16" fill="none" xmlns="http://www.w3.org/2000/svg">
<g id="verify 3">
<path id="Vector" d="M14.3736 7.16012L13.4669 6.10679C13.2936 5.90679 13.1536 5.53345 13.1536 5.26679V4.13345C13.1536 3.42679 12.5736 2.84679 11.8669 2.84679H10.7336C10.4736 2.84679 10.0936 2.70679 9.89358 2.53345L8.84025 1.62679C8.38025 1.23345 7.62691 1.23345 7.16025 1.62679L6.11358 2.54012C5.91358 2.70679 5.53358 2.84679 5.27358 2.84679H4.12025C3.41358 2.84679 2.83358 3.42679 2.83358 4.13345V5.27345C2.83358 5.53345 2.69358 5.90679 2.52691 6.10679L1.62691 7.16679C1.24025 7.62679 1.24025 8.37345 1.62691 8.83345L2.52691 9.89345C2.69358 10.0935 2.83358 10.4668 2.83358 10.7268V11.8668C2.83358 12.5735 3.41358 13.1535 4.12025 13.1535H5.27358C5.53358 13.1535 5.91358 13.2935 6.11358 13.4668L7.16691 14.3735C7.62691 14.7668 8.38025 14.7668 8.84691 14.3735L9.90025 13.4668C10.1002 13.2935 10.4736 13.1535 10.7402 13.1535H11.8736C12.5802 13.1535 13.1602 12.5735 13.1602 11.8668V10.7335C13.1602 10.4735 13.3002 10.0935 13.4736 9.89345L14.3802 8.84012C14.7669 8.38012 14.7669 7.62012 14.3736 7.16012ZM10.7736 6.74012L7.55358 9.96012C7.46025 10.0535 7.33358 10.1068 7.20025 10.1068C7.06691 10.1068 6.94025 10.0535 6.84691 9.96012L5.23358 8.34679C5.04025 8.15345 5.04025 7.83345 5.23358 7.64012C5.42691 7.44679 5.74691 7.44679 5.94025 7.64012L7.20025 8.90012L10.0669 6.03345C10.2602 5.84012 10.5802 5.84012 10.7736 6.03345C10.9669 6.22679 10.9669 6.54679 10.7736 6.74012Z" fill="url(#paint0_linear_289_7434)"/>
</g>
<defs>
<linearGradient id="paint0_linear_289_7434" x1="1.50024" y1="8.50012" x2="15.0002" y2="7.50012" gradientUnits="userSpaceOnUse">
<stop stop-color="#5D96FF"/>
<stop offset="1" stop-color="#D466FF"/>
</linearGradient>
</defs>
</svg>
