<svg width="24" height="24" viewBox="0 0 24 24" fill="none" xmlns="http://www.w3.org/2000/svg">
<path d="M22.3417 13.6583C23.2575 7.94676 19.3699 2.57418 13.6583 1.65831C7.94677 0.74245 2.57419 4.63012 1.65832 10.3417C0.742456 16.0532 4.63013 21.4258 10.3417 22.3417C16.0532 23.2575 21.4258 19.3699 22.3417 13.6583Z" fill="#E84142"/>
<path fill-rule="evenodd" clip-rule="evenodd" d="M9.03956 16.1702H7.00569C6.579 16.1702 6.3685 16.1702 6.23765 16.0878C6.09826 15.9967 6.01292 15.8488 6.00439 15.6838C5.99585 15.5331 6.10111 15.3482 6.31445 14.9755L11.3323 6.12883C11.5457 5.75335 11.6538 5.5656 11.7903 5.49449C11.9382 5.42053 12.1117 5.42053 12.2596 5.49449C12.3962 5.56276 12.5043 5.7505 12.7176 6.12883L13.7502 7.92946L13.7559 7.93799C13.9863 8.34193 14.103 8.54674 14.1542 8.76008C14.211 8.99334 14.211 9.24082 14.1542 9.47407C14.103 9.69026 13.9863 9.89507 13.7531 10.3047L11.1161 14.9641L11.1104 14.9755C10.8772 15.3823 10.7606 15.5871 10.5984 15.7436C10.422 15.9142 10.2087 16.0366 9.9726 16.1077C9.75925 16.1674 9.5203 16.1674 9.04241 16.1674L9.03956 16.1702Z" fill="white"/>
<path fill-rule="evenodd" clip-rule="evenodd" d="M14.1741 16.1702H17.087C17.5165 16.1702 17.7327 16.1702 17.8607 16.0849C18.0001 15.9939 18.0883 15.8431 18.094 15.6781C18.1025 15.5302 17.9973 15.3538 17.7953 15.004C17.7896 14.9926 17.7811 14.9812 17.7754 14.967L16.3161 12.4723L16.299 12.4438C16.0942 12.0968 15.9918 11.9233 15.8581 11.855C15.7102 11.781 15.5395 11.781 15.3916 11.855C15.2579 11.9233 15.1498 12.1082 14.9365 12.4751L13.4829 14.9698L13.4772 14.9784C13.2639 15.3453 13.1586 15.5302 13.1643 15.681C13.1757 15.846 13.2582 15.9967 13.3975 16.0878C13.5227 16.1702 13.7389 16.1702 14.1684 16.1702H14.1741Z" fill="white"/>
</svg>
