<svg width="24" height="24" viewBox="0 0 24 24" fill="none" xmlns="http://www.w3.org/2000/svg">
<path d="M12 0C18.629 0 24 5.37426 24 12C24 18.6257 18.6257 24 12 24C5.37425 24 0 18.6257 0 12C0 5.37426 5.37425 0 12 0Z" fill="#F0B90B"/>
<path d="M8.89424 10.7094L10.7128 8.9006L11.0941 8.51602L12.0034 7.60999L15.0963 10.7094L16.8953 8.9006L12.0034 3.99891L7.09521 8.9006L8.89424 10.7094Z" fill="white"/>
<path d="M12.005 10.1887L10.1982 11.9954L12.005 13.8022L13.8117 11.9954L12.005 10.1887Z" fill="white"/>
<path d="M15.0963 13.2939L12.0034 16.3867L10.9149 15.2982L10.7161 15.0994L8.89424 13.2939L7.09521 15.0929L12.0034 19.9913L16.8953 15.0929L15.0963 13.2939Z" fill="white"/>
<path d="M5.80578 10.1939L3.99902 12.0007L5.80578 13.8075L7.61253 12.0007L5.80578 10.1939Z" fill="white"/>
<path d="M18.1935 10.1939L16.3867 12.0007L18.1935 13.8074L20.0002 12.0007L18.1935 10.1939Z" fill="white"/>
</svg>
