<svg xmlns="http://www.w3.org/2000/svg" width="17" height="16" viewBox="0 0 17 16" fill="none">
  <g clip-path="url(#clip0_296_27224)">
    <path d="M8.50586 12.198L4.06543 10.03L8.50183 16L9.16833 15.103V11.8735L8.50586 12.198Z" fill="#252525"/>
    <path d="M8.50171 0L3.40625 9.14294H13.5973L8.50171 0Z" fill="#252525"/>
    <path d="M13.5975 9.15649L8.50195 0V9.15649H13.5975Z" fill="#252525"/>
    <path d="M8.50122 6.66003L8.4812 6.65051L3.40625 9.15051H3.41077L8.48572 11.6505L8.50574 11.641L9.16772 11.317V6.98645L8.50122 6.66003Z" fill="#252525"/>
    <path d="M8.50598 12.198L8.50195 16L12.9415 10.026L8.50598 12.198Z" fill="#252525"/>
    <path d="M13.5875 9.15051L8.50146 6.66003L8.48145 6.65051L8.48596 11.6505L8.50598 11.641L13.592 9.15051H13.5875Z" fill="#252525"/>
  </g>
  <defs>
    <clipPath id="clip0_296_27224">
      <rect width="16" height="16" fill="white" transform="translate(0.5)"/>
    </clipPath>
  </defs>
</svg>