<svg width="24" height="24" viewBox="0 0 24 24" fill="none" xmlns="http://www.w3.org/2000/svg">
<path d="M24 12C24 5.37258 18.6274 -2.72158e-06 12 -2.43189e-06C5.37258 -2.14219e-06 -8.1423e-07 5.37258 -5.24537e-07 12C-2.34843e-07 18.6274 5.37258 24 12 24C18.6274 24 24 18.6274 24 12Z" fill="#627EEA"/>
<path d="M12.3755 3.00332V9.65514L17.9974 12.1679L12.3755 3.00332Z" fill="white"/>
<path d="M12.3757 3.00332L6.75049 12.1679L12.3757 9.65514V3.00332Z" fill="white"/>
<path d="M12.3755 16.4797V21.0001L18.0007 13.2141L12.3755 16.4797Z" fill="white"/>
<path d="M12.3757 21.0001V16.4797L6.75049 13.2173L12.3757 21.0033V21.0001Z" fill="white"/>
<path d="M12.3755 15.4303L17.9974 12.1646L12.3755 9.65514V15.4303Z" fill="white"/>
<path d="M6.75391 12.1679L12.3791 15.4335V9.6584L6.75391 12.1679Z" fill="white"/>
</svg>
