<svg xmlns="http://www.w3.org/2000/svg" width="16" height="16" viewBox="0 0 16 16" fill="none">
  <path fill-rule="evenodd" clip-rule="evenodd" d="M0.728678 1.71941C0.837917 1.48397 1.07387 1.33333 1.33342 1.33333H14.6668C14.9263 1.33333 15.1623 1.48397 15.2715 1.71941C15.3807 1.95485 15.3434 2.23229 15.1758 2.43048L10.0001 8.55076V14C10.0001 14.231 9.88046 14.4456 9.68391 14.5671C9.48737 14.6886 9.24194 14.6996 9.03528 14.5963L6.36861 13.2629C6.14276 13.15 6.00009 12.9192 6.00009 12.6667V8.55076L0.824377 2.43048C0.656779 2.23229 0.61944 1.95485 0.728678 1.71941ZM2.77029 2.66666L7.1758 7.87618C7.27758 7.99653 7.33342 8.14905 7.33342 8.30666V12.2546L8.66676 12.9213V8.30666C8.66676 8.14905 8.7226 7.99653 8.82438 7.87618L13.2299 2.66666H2.77029Z" fill="#252525"/>
</svg>