<svg xmlns="http://www.w3.org/2000/svg" width="17" height="14" viewBox="0 0 17 14" fill="none">
  <g clip-path="url(#clip0_296_27243)">
    <mask id="mask0_296_27243" style="mask-type:luminance" maskUnits="userSpaceOnUse" x="0" y="0" width="17" height="14">
      <path d="M16.5 0.496399H0.5V13.5036H16.5V0.496399Z" fill="white"/>
    </mask>
    <g mask="url(#mask0_296_27243)">
      <path d="M14.7846 0.496399H16.4652L9.65079 8.27769C9.47813 8.47338 9.46661 8.77266 9.63928 8.97985L13.5645 13.5496H11.8148L8.18892 9.31367L8.00474 9.08345C7.83208 8.88777 7.84359 8.57697 8.01626 8.38129L14.7846 0.496399Z" fill="#6A6A6A"/>
      <path d="M10.998 8.97985C10.8829 8.85323 10.8484 8.66906 10.8829 8.50791C10.9174 8.41582 10.975 8.32373 11.044 8.25467L11.493 7.7597L16.5002 13.5496H14.9117C14.9117 13.5496 11.9764 10.1194 10.998 8.97985Z" fill="#6A6A6A"/>
      <path d="M2.24964 13.5496H0.5L5.86403 7.34532C6.03669 7.14964 6.03669 6.85036 5.86403 6.65467L0.546043 0.496399H2.22662L7.57914 6.70072C7.71727 6.88489 7.74029 7.14964 7.59065 7.3223C6.18633 8.94532 2.24964 13.5496 2.24964 13.5496Z" fill="#6A6A6A"/>
      <path d="M5.17303 0.496399H3.56152L8.52267 6.24028C8.52267 6.24028 8.53419 6.22877 9.0867 5.57266C9.23634 5.4 9.27088 5.18129 9.09821 5.00863C8.06224 3.94964 5.17303 0.496399 5.17303 0.496399Z" fill="#6A6A6A"/>
      <path d="M10.0081 4.50215L13.4498 0.496399H11.8153L10.0196 2.59136L9.50161 3.20143C9.32894 3.39712 9.31743 3.6964 9.4901 3.90359C9.61671 4.05323 10.0081 4.50215 10.0081 4.50215Z" fill="#6A6A6A"/>
      <path d="M7.01497 9.54388L3.57324 13.5496H5.19626L6.99195 11.4547L7.50993 10.8446C7.68259 10.6489 7.69411 10.3496 7.52144 10.1424C7.39482 9.99281 7.01497 9.54388 7.01497 9.54388Z" fill="#6A6A6A"/>
    </g>
  </g>
  <defs>
    <clipPath id="clip0_296_27243">
      <rect width="16" height="13.0072" fill="white" transform="translate(0.5 0.496399)"/>
    </clipPath>
  </defs>
</svg>