<svg xmlns="http://www.w3.org/2000/svg" width="12" height="12" viewBox="0 0 12 12" fill="none">
  <path fill-rule="evenodd" clip-rule="evenodd" d="M0.666992 6.00008C0.666992 5.63189 0.965469 5.33341 1.33366 5.33341H10.667C11.0352 5.33341 11.3337 5.63189 11.3337 6.00008C11.3337 6.36827 11.0352 6.66675 10.667 6.66675H1.33366C0.965469 6.66675 0.666992 6.36827 0.666992 6.00008Z" fill="white"/>
  <path fill-rule="evenodd" clip-rule="evenodd" d="M5.52892 0.86201C5.78927 0.601661 6.21138 0.601661 6.47173 0.86201L11.1384 5.52868C11.3987 5.78903 11.3987 6.21114 11.1384 6.47149L6.47173 11.1382C6.21138 11.3985 5.78927 11.3985 5.52892 11.1382C5.26857 10.8778 5.26857 10.4557 5.52892 10.1953L9.72418 6.00008L5.52892 1.80482C5.26857 1.54447 5.26857 1.12236 5.52892 0.86201Z" fill="white"/>
</svg>