<svg width="16" height="16" viewBox="0 0 16 16" fill="none" xmlns="http://www.w3.org/2000/svg">
<g id="moon">
<path id="Vector (Stroke)" fill-rule="evenodd" clip-rule="evenodd" d="M8.05421 1.67286C8.18323 1.90178 8.16574 2.18513 8.00954 2.39645C7.44006 3.16688 7.16603 4.11613 7.23727 5.07154C7.30852 6.02695 7.72032 6.92505 8.39777 7.6025C9.07522 8.27995 9.97332 8.69175 10.9287 8.763C11.8841 8.83425 12.8334 8.56021 13.6038 7.99073C13.8151 7.83454 14.0985 7.81704 14.3274 7.94606C14.5563 8.07507 14.6881 8.32653 14.6639 8.58819C14.5474 9.84908 14.0742 11.0507 13.2997 12.0525C12.5251 13.0542 11.4813 13.8147 10.2904 14.2449C9.09943 14.6751 7.81059 14.7572 6.57468 14.4816C5.33876 14.206 4.20689 13.5841 3.31151 12.6888C2.41613 11.7934 1.79426 10.6615 1.51868 9.42559C1.2431 8.18968 1.32521 6.90084 1.75539 5.70989C2.18557 4.51894 2.94603 3.47513 3.9478 2.7006C4.94956 1.92607 6.15119 1.45286 7.41208 1.33634C7.67374 1.31216 7.9252 1.44393 8.05421 1.67286ZM6.21102 2.95955C5.69261 3.14711 5.20383 3.41486 4.76335 3.75542C3.96194 4.37504 3.35357 5.21009 3.00942 6.16285C2.66528 7.11562 2.59959 8.14669 2.82006 9.13542C3.04052 10.1242 3.53801 11.0296 4.25432 11.746C4.97063 12.4623 5.87612 12.9598 6.86485 13.1802C7.85358 13.4007 8.88465 13.335 9.83742 12.9909C10.7902 12.6467 11.6252 12.0383 12.2449 11.2369C12.5854 10.7964 12.8532 10.3077 13.0407 9.78925C12.3386 10.0433 11.5856 10.149 10.8296 10.0926C9.5557 9.99764 8.35823 9.44858 7.45496 8.54531C6.55169 7.64204 6.00263 6.44457 5.90763 5.17069C5.85126 4.41471 5.95702 3.66163 6.21102 2.95955Z" fill="#6A6A6A"/>
</g>
</svg>
