<svg xmlns="http://www.w3.org/2000/svg" width="16" height="16" viewBox="0 0 16 16" fill="none">
  <path d="M8.33398 9.33333C8.88627 9.33333 9.33398 8.88561 9.33398 8.33333C9.33398 7.78104 8.88627 7.33333 8.33398 7.33333C7.7817 7.33333 7.33398 7.78104 7.33398 8.33333C7.33398 8.88561 7.7817 9.33333 8.33398 9.33333Z" fill="#252525" stroke="#6A6A6A" stroke-width="2" stroke-linecap="round" stroke-linejoin="round"/>
  <path d="M8.33398 4.66667C8.88627 4.66667 9.33398 4.21896 9.33398 3.66667C9.33398 3.11439 8.88627 2.66667 8.33398 2.66667C7.7817 2.66667 7.33398 3.11439 7.33398 3.66667C7.33398 4.21896 7.7817 4.66667 8.33398 4.66667Z" fill="#252525" stroke="#6A6A6A" stroke-width="2" stroke-linecap="round" stroke-linejoin="round"/>
  <path d="M8.33398 14C8.88627 14 9.33398 13.5523 9.33398 13C9.33398 12.4477 8.88627 12 8.33398 12C7.7817 12 7.33398 12.4477 7.33398 13C7.33398 13.5523 7.7817 14 8.33398 14Z" fill="#252525" stroke="#6A6A6A" stroke-width="2" stroke-linecap="round" stroke-linejoin="round"/>
</svg>