<svg xmlns="http://www.w3.org/2000/svg" width="17" height="14" viewBox="0 0 17 14" fill="none">
  <g clip-path="url(#clip0_296_27233)">
    <path d="M12.5833 4.27079C12.2917 4.10413 11.9167 4.10413 11.5833 4.27079L9.25 5.64579L7.66667 6.52079L5.375 7.89579C5.08333 8.06246 4.70833 8.06246 4.375 7.89579L2.58333 6.81246C2.29167 6.64579 2.08333 6.31246 2.08333 5.93746V3.85413C2.08333 3.52079 2.25 3.18746 2.58333 2.97913L4.375 1.93746C4.66667 1.77079 5.04167 1.77079 5.375 1.93746L7.16667 3.02079C7.45833 3.18746 7.66667 3.52079 7.66667 3.89579V5.27079L9.25 4.35413V2.93746C9.25 2.60413 9.08333 2.27079 8.75 2.06246L5.41667 0.104126C5.125 -0.0625407 4.75 -0.0625407 4.41667 0.104126L1 2.10413C0.666667 2.27079 0.5 2.60413 0.5 2.93746V6.85413C0.5 7.18746 0.666667 7.52079 1 7.72913L4.375 9.68746C4.66667 9.85413 5.04167 9.85413 5.375 9.68746L7.66667 8.35413L9.25 7.43746L11.5417 6.10413C11.8333 5.93746 12.2083 5.93746 12.5417 6.10413L14.3333 7.14579C14.625 7.31246 14.8333 7.64579 14.8333 8.02079V10.1041C14.8333 10.4375 14.6667 10.7708 14.3333 10.9791L12.5833 12.0208C12.2917 12.1875 11.9167 12.1875 11.5833 12.0208L9.79167 10.9791C9.5 10.8125 9.29167 10.4791 9.29167 10.1041V8.77079L7.70833 9.68746V11.0625C7.70833 11.3958 7.875 11.7291 8.20833 11.9375L11.5833 13.8958C11.875 14.0625 12.25 14.0625 12.5833 13.8958L15.9583 11.9375C16.25 11.7708 16.4583 11.4375 16.4583 11.0625V7.10413C16.4583 6.77079 16.2917 6.43746 15.9583 6.22913L12.5833 4.27079Z" fill="#6A6A6A"/>
  </g>
  <defs>
    <clipPath id="clip0_296_27233">
      <rect width="16" height="13.9583" fill="white" transform="translate(0.5 0.020813)"/>
    </clipPath>
  </defs>
</svg>