<svg xmlns="http://www.w3.org/2000/svg" width="20" height="20" viewBox="0 0 20 20" fill="none">
  <path fill-rule="evenodd" clip-rule="evenodd" d="M15.0003 2.5C14.0799 2.5 13.3337 3.24619 13.3337 4.16667C13.3337 5.08714 14.0799 5.83333 15.0003 5.83333C15.9208 5.83333 16.667 5.08714 16.667 4.16667C16.667 3.24619 15.9208 2.5 15.0003 2.5ZM11.667 4.16667C11.667 2.32572 13.1594 0.833332 15.0003 0.833332C16.8413 0.833332 18.3337 2.32572 18.3337 4.16667C18.3337 6.00761 16.8413 7.5 15.0003 7.5C13.1594 7.5 11.667 6.00761 11.667 4.16667Z" fill="#6A6A6A"/>
  <path fill-rule="evenodd" clip-rule="evenodd" d="M5.00033 8.33333C4.07985 8.33333 3.33366 9.07953 3.33366 10C3.33366 10.9205 4.07985 11.6667 5.00033 11.6667C5.9208 11.6667 6.66699 10.9205 6.66699 10C6.66699 9.07953 5.9208 8.33333 5.00033 8.33333ZM1.66699 10C1.66699 8.15905 3.15938 6.66667 5.00033 6.66667C6.84127 6.66667 8.33366 8.15905 8.33366 10C8.33366 11.841 6.84127 13.3333 5.00033 13.3333C3.15938 13.3333 1.66699 11.841 1.66699 10Z" fill="#6A6A6A"/>
  <path fill-rule="evenodd" clip-rule="evenodd" d="M15.0003 14.1667C14.0799 14.1667 13.3337 14.9129 13.3337 15.8333C13.3337 16.7538 14.0799 17.5 15.0003 17.5C15.9208 17.5 16.667 16.7538 16.667 15.8333C16.667 14.9129 15.9208 14.1667 15.0003 14.1667ZM11.667 15.8333C11.667 13.9924 13.1594 12.5 15.0003 12.5C16.8413 12.5 18.3337 13.9924 18.3337 15.8333C18.3337 17.6743 16.8413 19.1667 15.0003 19.1667C13.1594 19.1667 11.667 17.6743 11.667 15.8333Z" fill="#6A6A6A"/>
  <path fill-rule="evenodd" clip-rule="evenodd" d="M6.43866 10.8388C6.67038 10.4411 7.18058 10.3066 7.57823 10.5383L13.2699 13.855C13.6675 14.0867 13.8021 14.5969 13.5703 14.9946C13.3386 15.3922 12.8284 15.5267 12.4308 15.295L6.7391 11.9783C6.34145 11.7466 6.20694 11.2364 6.43866 10.8388Z" fill="#6A6A6A"/>
  <path fill-rule="evenodd" clip-rule="evenodd" d="M13.5617 5.00497C13.7937 5.40248 13.6595 5.91277 13.262 6.14474L7.57869 9.4614C7.18119 9.69338 6.6709 9.55919 6.43892 9.16169C6.20695 8.76419 6.34114 8.2539 6.73864 8.02193L12.422 4.70526C12.8195 4.47329 13.3298 4.60747 13.5617 5.00497Z" fill="#6A6A6A"/>
</svg>