<svg width="16" height="16" viewBox="0 0 16 16" fill="none" xmlns="http://www.w3.org/2000/svg">
<g id="shopping-bag">
<path id="Vector (Stroke)" fill-rule="evenodd" clip-rule="evenodd" d="M3.46683 0.933171C3.59273 0.7653 3.79032 0.666504 4.00016 0.666504H12.0002C12.21 0.666504 12.4076 0.7653 12.5335 0.933171L14.5335 3.59984C14.62 3.71523 14.6668 3.85559 14.6668 3.99984V13.3332C14.6668 13.8636 14.4561 14.3723 14.081 14.7474C13.706 15.1225 13.1973 15.3332 12.6668 15.3332H3.3335C2.80306 15.3332 2.29436 15.1225 1.91928 14.7474C1.54421 14.3723 1.3335 13.8636 1.3335 13.3332V3.99984C1.3335 3.85559 1.38028 3.71523 1.46683 3.59984L3.46683 0.933171ZM4.3335 1.99984L2.66683 4.22206V13.3332C2.66683 13.51 2.73707 13.6795 2.86209 13.8046C2.98712 13.9296 3.15669 13.9998 3.3335 13.9998H12.6668C12.8436 13.9998 13.0132 13.9296 13.1382 13.8046C13.2633 13.6795 13.3335 13.51 13.3335 13.3332V4.22206L11.6668 1.99984H4.3335Z" fill="#252525"/>
<path id="Vector (Stroke)_2" fill-rule="evenodd" clip-rule="evenodd" d="M1.3335 4.00016C1.3335 3.63197 1.63197 3.3335 2.00016 3.3335H14.0002C14.3684 3.3335 14.6668 3.63197 14.6668 4.00016C14.6668 4.36835 14.3684 4.66683 14.0002 4.66683H2.00016C1.63197 4.66683 1.3335 4.36835 1.3335 4.00016Z" fill="#252525"/>
<path id="Vector (Stroke)_3" fill-rule="evenodd" clip-rule="evenodd" d="M5.33317 6C5.70136 6 5.99984 6.29848 5.99984 6.66667C5.99984 7.1971 6.21055 7.70581 6.58562 8.08088C6.9607 8.45595 7.4694 8.66667 7.99984 8.66667C8.53027 8.66667 9.03898 8.45595 9.41405 8.08088C9.78912 7.70581 9.99984 7.1971 9.99984 6.66667C9.99984 6.29848 10.2983 6 10.6665 6C11.0347 6 11.3332 6.29848 11.3332 6.66667C11.3332 7.55072 10.982 8.39857 10.3569 9.02369C9.73174 9.64881 8.88389 10 7.99984 10C7.11578 10 6.26794 9.64881 5.64281 9.02369C5.01769 8.39857 4.6665 7.55072 4.6665 6.66667C4.6665 6.29848 4.96498 6 5.33317 6Z" fill="#252525"/>
</g>
</svg>
