<svg xmlns="http://www.w3.org/2000/svg" width="16" height="16" viewBox="0 0 16 16" fill="none">
  <path fill-rule="evenodd" clip-rule="evenodd" d="M2.66667 8.66666C3.03486 8.66666 3.33333 8.96514 3.33333 9.33333V14C3.33333 14.3682 3.03486 14.6667 2.66667 14.6667C2.29848 14.6667 2 14.3682 2 14V9.33333C2 8.96514 2.29848 8.66666 2.66667 8.66666Z" fill="#252525"/>
  <path fill-rule="evenodd" clip-rule="evenodd" d="M2.66667 1.33333C3.03486 1.33333 3.33333 1.63181 3.33333 1.99999V6.66666C3.33333 7.03485 3.03486 7.33333 2.66667 7.33333C2.29848 7.33333 2 7.03485 2 6.66666V1.99999C2 1.63181 2.29848 1.33333 2.66667 1.33333Z" fill="#252525"/>
  <path fill-rule="evenodd" clip-rule="evenodd" d="M8 7.33333C8.36819 7.33333 8.66667 7.63181 8.66667 8V14C8.66667 14.3682 8.36819 14.6667 8 14.6667C7.63181 14.6667 7.33333 14.3682 7.33333 14V8C7.33333 7.63181 7.63181 7.33333 8 7.33333Z" fill="#252525"/>
  <path fill-rule="evenodd" clip-rule="evenodd" d="M8 1.33333C8.36819 1.33333 8.66667 1.63181 8.66667 1.99999V5.33333C8.66667 5.70152 8.36819 6 8 6C7.63181 6 7.33333 5.70152 7.33333 5.33333V1.99999C7.33333 1.63181 7.63181 1.33333 8 1.33333Z" fill="#252525"/>
  <path fill-rule="evenodd" clip-rule="evenodd" d="M13.3333 10C13.7015 10 14 10.2985 14 10.6667V14C14 14.3682 13.7015 14.6667 13.3333 14.6667C12.9651 14.6667 12.6667 14.3682 12.6667 14V10.6667C12.6667 10.2985 12.9651 10 13.3333 10Z" fill="#252525"/>
  <path fill-rule="evenodd" clip-rule="evenodd" d="M13.3333 1.33333C13.7015 1.33333 14 1.63181 14 1.99999V8C14 8.36819 13.7015 8.66666 13.3333 8.66666C12.9651 8.66666 12.6667 8.36819 12.6667 8V1.99999C12.6667 1.63181 12.9651 1.33333 13.3333 1.33333Z" fill="#252525"/>
  <path fill-rule="evenodd" clip-rule="evenodd" d="M0 9.33333C0 8.96514 0.298477 8.66666 0.666667 8.66666H4.66667C5.03486 8.66666 5.33333 8.96514 5.33333 9.33333C5.33333 9.70152 5.03486 10 4.66667 10H0.666667C0.298477 10 0 9.70152 0 9.33333Z" fill="#252525"/>
  <path fill-rule="evenodd" clip-rule="evenodd" d="M5.33333 5.33333C5.33333 4.96514 5.63181 4.66666 6 4.66666H10C10.3682 4.66666 10.6667 4.96514 10.6667 5.33333C10.6667 5.70152 10.3682 6 10 6H6C5.63181 6 5.33333 5.70152 5.33333 5.33333Z" fill="#252525"/>
  <path fill-rule="evenodd" clip-rule="evenodd" d="M10.6667 10.6667C10.6667 10.2985 10.9651 10 11.3333 10H15.3333C15.7015 10 16 10.2985 16 10.6667C16 11.0349 15.7015 11.3333 15.3333 11.3333H11.3333C10.9651 11.3333 10.6667 11.0349 10.6667 10.6667Z" fill="#252525"/>
</svg>