<svg width="24" height="24" viewBox="0 0 24 24" fill="none" xmlns="http://www.w3.org/2000/svg">
<path d="M12 24C18.6274 24 24 18.6274 24 12C24 5.37258 18.6274 0 12 0C5.37258 0 0 5.37258 0 12C0 18.6274 5.37258 24 12 24Z" fill="url(#paint0_linear_319_102186)"/>
<path d="M6.3164 15.4742C6.41743 15.3732 6.55757 15.3145 6.70749 15.3145H20.1447C20.3892 15.3145 20.513 15.6111 20.3403 15.7838L17.6874 18.4367C17.5864 18.5377 17.4462 18.5964 17.2963 18.5964H3.85904C3.61461 18.5964 3.49076 18.2998 3.66349 18.1271L6.3164 15.4742Z" fill="white"/>
<path d="M6.3164 5.56328C6.42069 5.46224 6.56083 5.40358 6.70749 5.40358H20.1447C20.3892 5.40358 20.513 5.70016 20.3403 5.87289L17.6874 8.5258C17.5864 8.62683 17.4462 8.68549 17.2963 8.68549H3.85904C3.61461 8.68549 3.49076 8.38891 3.66349 8.21618L6.3164 5.56328Z" fill="white"/>
<path d="M17.684 10.4878C17.5829 10.3867 17.4428 10.3281 17.2929 10.3281H3.85562C3.61119 10.3281 3.48734 10.6247 3.66007 10.7974L6.31298 13.4503C6.41401 13.5513 6.55415 13.61 6.70407 13.61H20.1413C20.3858 13.61 20.5096 13.3134 20.3369 13.1407L17.684 10.4878Z" fill="white"/>
<defs>
<linearGradient id="paint0_linear_319_102186" x1="22.5171" y1="1.27431" x2="3.00815" y2="21.1678" gradientUnits="userSpaceOnUse">
<stop stop-color="#00FFA3"/>
<stop offset="1" stop-color="#DC1FFF"/>
</linearGradient>
</defs>
</svg>
