<svg width="16" height="16" viewBox="0 0 16 16" fill="none" xmlns="http://www.w3.org/2000/svg">
<g id="sun" clip-path="url(#clip0_266_2735)">
<path id="Vector (Stroke)" fill-rule="evenodd" clip-rule="evenodd" d="M8 5.33333C6.52724 5.33333 5.33333 6.52724 5.33333 8C5.33333 9.47276 6.52724 10.6667 8 10.6667C9.47276 10.6667 10.6667 9.47276 10.6667 8C10.6667 6.52724 9.47276 5.33333 8 5.33333ZM4 8C4 5.79086 5.79086 4 8 4C10.2091 4 12 5.79086 12 8C12 10.2091 10.2091 12 8 12C5.79086 12 4 10.2091 4 8Z" fill="#252525"/>
<path id="Vector (Stroke)_2" fill-rule="evenodd" clip-rule="evenodd" d="M8.00016 0C8.36835 0 8.66683 0.298477 8.66683 0.666667V2C8.66683 2.36819 8.36835 2.66667 8.00016 2.66667C7.63197 2.66667 7.3335 2.36819 7.3335 2V0.666667C7.3335 0.298477 7.63197 0 8.00016 0Z" fill="#252525"/>
<path id="Vector (Stroke)_3" fill-rule="evenodd" clip-rule="evenodd" d="M8.00016 13.3335C8.36835 13.3335 8.66683 13.632 8.66683 14.0002V15.3335C8.66683 15.7017 8.36835 16.0002 8.00016 16.0002C7.63197 16.0002 7.3335 15.7017 7.3335 15.3335V14.0002C7.3335 13.632 7.63197 13.3335 8.00016 13.3335Z" fill="#252525"/>
<path id="Vector (Stroke)_4" fill-rule="evenodd" clip-rule="evenodd" d="M2.34175 2.34223C2.6021 2.08189 3.02421 2.08189 3.28456 2.34223L4.23122 3.2889C4.49157 3.54925 4.49157 3.97136 4.23122 4.23171C3.97087 4.49206 3.54876 4.49206 3.28841 4.23171L2.34175 3.28504C2.0814 3.02469 2.0814 2.60258 2.34175 2.34223Z" fill="#252525"/>
<path id="Vector (Stroke)_5" fill-rule="evenodd" clip-rule="evenodd" d="M11.769 11.7685C12.0293 11.5082 12.4515 11.5082 12.7118 11.7685L13.6585 12.7152C13.9188 12.9755 13.9188 13.3976 13.6585 13.658C13.3981 13.9183 12.976 13.9183 12.7157 13.658L11.769 12.7113C11.5086 12.451 11.5086 12.0289 11.769 11.7685Z" fill="#252525"/>
<path id="Vector (Stroke)_6" fill-rule="evenodd" clip-rule="evenodd" d="M0 8.00016C0 7.63197 0.298477 7.3335 0.666667 7.3335H2C2.36819 7.3335 2.66667 7.63197 2.66667 8.00016C2.66667 8.36835 2.36819 8.66683 2 8.66683H0.666667C0.298477 8.66683 0 8.36835 0 8.00016Z" fill="#252525"/>
<path id="Vector (Stroke)_7" fill-rule="evenodd" clip-rule="evenodd" d="M13.3335 8.00016C13.3335 7.63197 13.632 7.3335 14.0002 7.3335H15.3335C15.7017 7.3335 16.0002 7.63197 16.0002 8.00016C16.0002 8.36835 15.7017 8.66683 15.3335 8.66683H14.0002C13.632 8.66683 13.3335 8.36835 13.3335 8.00016Z" fill="#252525"/>
<path id="Vector (Stroke)_8" fill-rule="evenodd" clip-rule="evenodd" d="M4.23122 11.7685C4.49157 12.0289 4.49157 12.451 4.23122 12.7113L3.28456 13.658C3.02421 13.9183 2.6021 13.9183 2.34175 13.658C2.0814 13.3976 2.0814 12.9755 2.34175 12.7152L3.28841 11.7685C3.54876 11.5082 3.97087 11.5082 4.23122 11.7685Z" fill="#252525"/>
<path id="Vector (Stroke)_9" fill-rule="evenodd" clip-rule="evenodd" d="M13.6585 2.34223C13.9188 2.60258 13.9188 3.02469 13.6585 3.28504L12.7118 4.23171C12.4515 4.49206 12.0293 4.49206 11.769 4.23171C11.5086 3.97136 11.5086 3.54925 11.769 3.2889L12.7157 2.34223C12.976 2.08189 13.3981 2.08189 13.6585 2.34223Z" fill="#252525"/>
</g>
<defs>
<clipPath id="clip0_266_2735">
<rect width="16" height="16" fill="white"/>
</clipPath>
</defs>
</svg>
