<svg xmlns="http://www.w3.org/2000/svg" width="17" height="16" viewBox="0 0 17 16" fill="none">
  <path d="M9.92947 13.8667C8.97805 13.8667 8.28356 13.6375 7.84609 13.1791C7.44085 12.7912 7.20565 12.2585 7.192 11.6977C7.18707 11.5273 7.22658 11.3586 7.30658 11.208C7.3812 11.078 7.48903 10.9701 7.61903 10.8953C7.92534 10.7426 8.28565 10.7426 8.59196 10.8953C8.72174 10.9698 8.82903 11.0778 8.90267 11.208C8.98498 11.3578 9.02596 11.5268 9.02134 11.6977C9.02983 11.9017 8.97129 12.1029 8.85467 12.2706C8.75747 12.4075 8.61854 12.5091 8.45867 12.5604C8.61498 12.7594 8.83614 12.8973 9.08365 12.95C9.36058 13.0304 9.64734 13.0718 9.93569 13.0729C10.3175 13.0762 10.6914 12.9644 11.0086 12.7521C11.3378 12.5195 11.5832 12.1871 11.7086 11.8042C11.8676 11.3483 11.9452 10.8681 11.9378 10.3855C11.9506 9.88226 11.8657 9.38133 11.6878 8.91044C11.554 8.53381 11.2999 8.21168 10.9648 7.99377C10.6534 7.7967 10.2919 7.69328 9.92338 7.6959C9.60223 7.7231 9.29258 7.82821 9.02125 8.00217L8.35231 8.33755V8.00217L11.3585 3.96928H7.192V8.15426C7.18023 8.45626 7.26014 8.75475 7.42116 9.01053C7.57965 9.23719 7.84516 9.36444 8.12116 9.3459C8.37187 9.34084 8.61427 9.25541 8.81276 9.10217C9.03774 8.93728 9.23351 8.7359 9.39196 8.5063C9.40623 8.46604 9.43254 8.43115 9.46729 8.40635C9.4952 8.38221 9.53085 8.36893 9.56774 8.36884C9.64014 8.37546 9.70863 8.40457 9.7636 8.45213C9.83325 8.52995 9.87111 8.63106 9.86983 8.73546C9.86178 8.80564 9.84925 8.87524 9.83231 8.94377C9.68431 9.30204 9.43618 9.61004 9.11769 9.83097C8.82187 10.0311 8.47249 10.1373 8.11529 10.1355C7.21316 10.1355 6.58823 9.95768 6.24045 9.60213C5.87934 9.20515 5.69311 8.67955 5.72378 8.14372V3.96919H3.60449V3.19164H5.73365V1.4187L5.24618 0.930881V0.533325H6.66071L7.19205 0.808347V3.19159L12.6961 3.17484L13.2441 3.72484L9.86911 7.11626C10.073 7.03426 10.2877 6.9823 10.5066 6.96208C10.9397 6.98106 11.3623 7.10168 11.7401 7.31421C12.1777 7.52221 12.5464 7.85128 12.8027 8.26244C13.0323 8.61048 13.1948 8.99839 13.2819 9.40617C13.3535 9.72781 13.3919 10.0559 13.3965 10.3855C13.3987 11.0143 13.2561 11.6351 12.9798 12.2C12.7178 12.747 12.2768 13.188 11.7298 13.45C11.1698 13.7259 10.5536 13.8685 9.92947 13.8667Z" fill="#6A6A6A"/>
  <path d="M12.6779 15.4667H4.32233C4.17504 15.4667 4.05566 15.3473 4.05566 15.2C4.05566 15.0527 4.17504 14.9333 4.32233 14.9333H12.6779C12.8252 14.9333 12.9446 15.0527 12.9446 15.2C12.9446 15.3473 12.8252 15.4667 12.6779 15.4667Z" fill="#6A6A6A"/>
</svg>