<svg xmlns="http://www.w3.org/2000/svg" width="16" height="16" viewBox="0 0 16 16" fill="none">
  <path d="M14.3736 7.16L13.4669 6.10667C13.2936 5.90667 13.1536 5.53333 13.1536 5.26667V4.13333C13.1536 3.42667 12.5736 2.84666 11.8669 2.84666H10.7336C10.4736 2.84666 10.0936 2.70667 9.89358 2.53333L8.84025 1.62667C8.38025 1.23333 7.62691 1.23333 7.16025 1.62667L6.11358 2.54C5.91358 2.70667 5.53358 2.84666 5.27358 2.84666H4.12025C3.41358 2.84666 2.83358 3.42667 2.83358 4.13333V5.27333C2.83358 5.53333 2.69358 5.90667 2.52691 6.10667L1.62691 7.16667C1.24025 7.62667 1.24025 8.37333 1.62691 8.83333L2.52691 9.89333C2.69358 10.0933 2.83358 10.4667 2.83358 10.7267V11.8667C2.83358 12.5733 3.41358 13.1533 4.12025 13.1533H5.27358C5.53358 13.1533 5.91358 13.2933 6.11358 13.4667L7.16691 14.3733C7.62691 14.7667 8.38025 14.7667 8.84691 14.3733L9.90025 13.4667C10.1002 13.2933 10.4736 13.1533 10.7402 13.1533H11.8736C12.5802 13.1533 13.1602 12.5733 13.1602 11.8667V10.7333C13.1602 10.4733 13.3002 10.0933 13.4736 9.89333L14.3802 8.84C14.7669 8.38 14.7669 7.62 14.3736 7.16ZM10.7736 6.74L7.55358 9.96C7.46025 10.0533 7.33358 10.1067 7.20025 10.1067C7.06691 10.1067 6.94025 10.0533 6.84691 9.96L5.23358 8.34667C5.04025 8.15333 5.04025 7.83333 5.23358 7.64C5.42691 7.44666 5.74691 7.44666 5.94025 7.64L7.20025 8.9L10.0669 6.03333C10.2602 5.84 10.5802 5.84 10.7736 6.03333C10.9669 6.22667 10.9669 6.54666 10.7736 6.74Z" fill="url(#paint0_linear_298_28100)"/>
  <defs>
    <linearGradient id="paint0_linear_298_28100" x1="1.50024" y1="8.5" x2="15.0002" y2="7.5" gradientUnits="userSpaceOnUse">
      <stop stop-color="#5D96FF"/>
      <stop offset="1" stop-color="#D466FF"/>
    </linearGradient>
  </defs>
</svg>