<svg xmlns="http://www.w3.org/2000/svg" width="20" height="20" viewBox="0 0 20 20" fill="none">
  <path fill-rule="evenodd" clip-rule="evenodd" d="M15.5893 4.41073C15.9148 4.73617 15.9148 5.26381 15.5893 5.58925L5.58934 15.5892C5.2639 15.9147 4.73626 15.9147 4.41083 15.5892C4.08539 15.2638 4.08539 14.7362 4.41083 14.4107L14.4108 4.41073C14.7363 4.0853 15.2639 4.0853 15.5893 4.41073Z" fill="#252525"/>
  <path fill-rule="evenodd" clip-rule="evenodd" d="M4.41083 4.41073C4.73626 4.0853 5.2639 4.0853 5.58934 4.41073L15.5893 14.4107C15.9148 14.7362 15.9148 15.2638 15.5893 15.5892C15.2639 15.9147 14.7363 15.9147 14.4108 15.5892L4.41083 5.58925C4.08539 5.26381 4.08539 4.73617 4.41083 4.41073Z" fill="#252525"/>
</svg>